<svg width="170" height="36" viewBox="0 0 170 36" fill="none" xmlns="http://www.w3.org/2000/svg">
<path d="M15.0811 19.6215C15.0811 16.3974 17.6947 13.7837 20.9189 13.7837H32.2702V25.4594H20.9189C17.6947 25.4594 15.0811 22.8457 15.0811 19.6215Z" fill="#005DFD"/>
<path fill-rule="evenodd" clip-rule="evenodd" d="M17.8378 1.78369L3.56757 9.8918V26.108L17.8378 34.2161L26.4001 29.3512H21.2433C15.8432 29.3512 11.4407 25.0209 11.3514 19.6215C11.4407 14.2221 15.8432 9.89175 21.2433 9.89175H32.108L17.8378 1.78369Z" fill="#0C0F2A"/>
<path d="M54.1 20.1H48.28V26H45.64V12.04H48.28V17.76H54.1V12.04H56.74V26H54.1V20.1ZM67.535 26C66.975 26 66.5283 25.84 66.195 25.52C65.875 25.1867 65.675 24.7467 65.595 24.2H65.475C65.3017 24.88 64.9483 25.3933 64.415 25.74C63.8817 26.0733 63.2217 26.24 62.435 26.24C61.3683 26.24 60.5483 25.96 59.975 25.4C59.4017 24.84 59.115 24.0933 59.115 23.16C59.115 22.08 59.5017 21.28 60.275 20.76C61.0483 20.2267 62.1483 19.96 63.575 19.96H65.355V19.2C65.355 18.6133 65.2017 18.16 64.895 17.84C64.5883 17.52 64.095 17.36 63.415 17.36C62.815 17.36 62.3283 17.4933 61.955 17.76C61.595 18.0133 61.2883 18.32 61.035 18.68L59.515 17.32C59.9017 16.72 60.415 16.24 61.055 15.88C61.695 15.5067 62.5417 15.32 63.595 15.32C65.0083 15.32 66.0817 15.64 66.815 16.28C67.5483 16.92 67.915 17.84 67.915 19.04V23.96H68.955V26H67.535ZM63.295 24.38C63.8683 24.38 64.355 24.2533 64.755 24C65.155 23.7467 65.355 23.3733 65.355 22.88V21.5H63.715C62.3817 21.5 61.715 21.9267 61.715 22.78V23.12C61.715 23.5467 61.8483 23.8667 62.115 24.08C62.395 24.28 62.7883 24.38 63.295 24.38ZM71.0269 26V15.56H73.5869V17.72H73.6869C73.7535 17.44 73.8535 17.1733 73.9869 16.92C74.1335 16.6533 74.3202 16.42 74.5469 16.22C74.7735 16.02 75.0402 15.86 75.3469 15.74C75.6669 15.62 76.0335 15.56 76.4469 15.56H77.0069V17.98H76.2069C75.3402 17.98 74.6869 18.1067 74.2469 18.36C73.8069 18.6133 73.5869 19.0267 73.5869 19.6V26H71.0269ZM78.8784 26V15.56H81.4384V17.3H81.5384C81.7384 16.7533 82.0584 16.2867 82.4984 15.9C82.9384 15.5133 83.5518 15.32 84.3384 15.32C85.0584 15.32 85.6784 15.4933 86.1984 15.84C86.7184 16.1867 87.1051 16.7133 87.3584 17.42H87.3984C87.5851 16.8333 87.9518 16.34 88.4984 15.94C89.0584 15.5267 89.7584 15.32 90.5984 15.32C91.6251 15.32 92.4118 15.6733 92.9584 16.38C93.5184 17.0867 93.7984 18.0933 93.7984 19.4V26H91.2384V19.66C91.2384 18.1667 90.6784 17.42 89.5584 17.42C89.3051 17.42 89.0584 17.46 88.8184 17.54C88.5918 17.6067 88.3851 17.7133 88.1984 17.86C88.0251 17.9933 87.8851 18.1667 87.7784 18.38C87.6718 18.58 87.6184 18.82 87.6184 19.1V26H85.0584V19.66C85.0584 18.1667 84.4984 17.42 83.3784 17.42C83.1384 17.42 82.8984 17.46 82.6584 17.54C82.4318 17.6067 82.2251 17.7133 82.0384 17.86C81.8651 17.9933 81.7184 18.1667 81.5984 18.38C81.4918 18.58 81.4384 18.82 81.4384 19.1V26H78.8784ZM100.772 26.24C100.026 26.24 99.3523 26.1133 98.7523 25.86C98.1657 25.6067 97.659 25.24 97.2323 24.76C96.819 24.28 96.499 23.7067 96.2723 23.04C96.0457 22.36 95.9323 21.6 95.9323 20.76C95.9323 19.92 96.0457 19.1667 96.2723 18.5C96.499 17.8333 96.819 17.2667 97.2323 16.8C97.659 16.32 98.1657 15.9533 98.7523 15.7C99.3523 15.4467 100.026 15.32 100.772 15.32C101.519 15.32 102.192 15.4467 102.792 15.7C103.392 15.9533 103.899 16.32 104.312 16.8C104.739 17.2667 105.066 17.8333 105.292 18.5C105.519 19.1667 105.632 19.92 105.632 20.76C105.632 21.6 105.519 22.36 105.292 23.04C105.066 23.7067 104.739 24.28 104.312 24.76C103.899 25.24 103.392 25.6067 102.792 25.86C102.192 26.1133 101.519 26.24 100.772 26.24ZM100.772 24.18C101.452 24.18 101.986 23.9733 102.372 23.56C102.759 23.1467 102.952 22.54 102.952 21.74V19.8C102.952 19.0133 102.759 18.4133 102.372 18C101.986 17.5867 101.452 17.38 100.772 17.38C100.106 17.38 99.579 17.5867 99.1923 18C98.8057 18.4133 98.6123 19.0133 98.6123 19.8V21.74C98.6123 22.54 98.8057 23.1467 99.1923 23.56C99.579 23.9733 100.106 24.18 100.772 24.18ZM107.902 26V15.56H110.462V17.3H110.562C110.775 16.74 111.109 16.2733 111.562 15.9C112.029 15.5133 112.669 15.32 113.482 15.32C114.562 15.32 115.389 15.6733 115.962 16.38C116.535 17.0867 116.822 18.0933 116.822 19.4V26H114.262V19.66C114.262 18.9133 114.129 18.3533 113.862 17.98C113.595 17.6067 113.155 17.42 112.542 17.42C112.275 17.42 112.015 17.46 111.762 17.54C111.522 17.6067 111.302 17.7133 111.102 17.86C110.915 17.9933 110.762 18.1667 110.642 18.38C110.522 18.58 110.462 18.82 110.462 19.1V26H107.902ZM120.94 14.04C120.406 14.04 120.02 13.92 119.78 13.68C119.553 13.44 119.44 13.1333 119.44 12.76V12.36C119.44 11.9867 119.553 11.68 119.78 11.44C120.02 11.2 120.406 11.08 120.94 11.08C121.46 11.08 121.84 11.2 122.08 11.44C122.32 11.68 122.44 11.9867 122.44 12.36V12.76C122.44 13.1333 122.32 13.44 122.08 13.68C121.84 13.92 121.46 14.04 120.94 14.04ZM119.66 15.56H122.22V26H119.66V15.56ZM124.447 26V23.96L129.867 17.58H124.627V15.56H132.867V17.54L127.407 23.96H133.007V26H124.447ZM139.231 26.24C138.458 26.24 137.765 26.1133 137.151 25.86C136.551 25.5933 136.038 25.2267 135.611 24.76C135.198 24.28 134.878 23.7067 134.651 23.04C134.425 22.36 134.311 21.6 134.311 20.76C134.311 19.9333 134.418 19.1867 134.631 18.52C134.858 17.8533 135.178 17.2867 135.591 16.82C136.005 16.34 136.511 15.9733 137.111 15.72C137.711 15.4533 138.391 15.32 139.151 15.32C139.965 15.32 140.671 15.46 141.271 15.74C141.871 16.02 142.365 16.4 142.751 16.88C143.138 17.36 143.425 17.92 143.611 18.56C143.811 19.1867 143.911 19.86 143.911 20.58V21.42H136.971V21.68C136.971 22.44 137.185 23.0533 137.611 23.52C138.038 23.9733 138.671 24.2 139.511 24.2C140.151 24.2 140.671 24.0667 141.071 23.8C141.485 23.5333 141.851 23.1933 142.171 22.78L143.551 24.32C143.125 24.92 142.538 25.3933 141.791 25.74C141.058 26.0733 140.205 26.24 139.231 26.24ZM139.191 17.24C138.511 17.24 137.971 17.4667 137.571 17.92C137.171 18.3733 136.971 18.96 136.971 19.68V19.84H141.251V19.66C141.251 18.94 141.071 18.36 140.711 17.92C140.365 17.4667 139.858 17.24 139.191 17.24ZM152.644 24.26H152.544C152.357 24.86 152.004 25.34 151.484 25.7C150.964 26.06 150.357 26.24 149.664 26.24C148.344 26.24 147.33 25.7667 146.624 24.82C145.93 23.8733 145.584 22.52 145.584 20.76C145.584 19.0133 145.93 17.6733 146.624 16.74C147.33 15.7933 148.344 15.32 149.664 15.32C150.357 15.32 150.964 15.5 151.484 15.86C152.004 16.2067 152.357 16.68 152.544 17.28H152.644V11.2H155.204V26H152.644V24.26ZM150.484 24.12C151.097 24.12 151.61 23.9733 152.024 23.68C152.437 23.3867 152.644 22.9667 152.644 22.42V19.1C152.644 18.5933 152.437 18.1867 152.024 17.88C151.61 17.5733 151.097 17.42 150.484 17.42C149.817 17.42 149.277 17.6467 148.864 18.1C148.464 18.54 148.264 19.1333 148.264 19.88V21.68C148.264 22.4267 148.464 23.02 148.864 23.46C149.277 23.9 149.817 24.12 150.484 24.12ZM169.416 26H166.336L163.136 20.64H163.076L159.916 26H157.036L161.556 18.84L157.236 12.04H160.316L163.276 17H163.336L166.336 12.04H169.216L164.856 18.84L169.416 26Z" fill="#04050D"/>
</svg>
