<svg width="48" height="48" viewBox="0 0 48 48" fill="none" xmlns="http://www.w3.org/2000/svg">
<path d="M26.818 3.18198C28.5754 1.42462 31.4246 1.42462 33.182 3.18198L44.818 14.818C46.5754 16.5754 46.5754 19.4246 44.818 21.182L33.182 32.818C31.4246 34.5754 28.5754 34.5754 26.818 32.818L15.182 21.182C13.4246 19.4246 13.4246 16.5754 15.182 14.818L26.818 3.18198Z" fill="url(#paint0_linear_7_11301)"/>
<path fill-rule="evenodd" clip-rule="evenodd" d="M29.5234 21.8672C29.3738 21.8487 29.2543 21.7318 29.2334 21.5825C28.7672 18.2456 26.0528 14.0778 20.7926 14.0778C15.1394 14.0778 12.8127 18.6844 12.3631 21.5865C12.3403 21.7339 12.2215 21.8484 12.0734 21.8665C8.33676 22.3242 5.80798 25.1881 5.80798 29.1225C5.80798 31.9931 7.49898 34.612 10.1447 35.8074C10.9307 36.1267 11.6461 36.2749 12.2091 36.3429C12.3556 36.3606 12.4707 36.2431 12.4707 36.0955C12.4707 33.5765 13.5473 31.3139 15.2573 29.7242C15.3112 29.6704 15.3492 29.607 15.4062 29.5564C15.4647 29.5057 15.5328 29.4693 15.5914 29.4202C15.8622 29.1954 16.1472 28.988 16.4432 28.7948C16.5952 28.6966 16.7472 28.6032 16.904 28.5145C17.2206 28.3372 17.5484 28.1757 17.8872 28.038C18.0281 27.981 18.1706 27.9319 18.3147 27.8812C18.6884 27.7514 19.0715 27.639 19.4674 27.5598C19.5671 27.5408 19.6685 27.5297 19.7682 27.5139C20.1957 27.4458 20.6295 27.4015 21.076 27.3951C21.0935 27.3951 21.1125 27.3904 21.1299 27.3904C21.1378 27.3904 21.1441 27.392 21.152 27.392C21.16 27.392 21.1663 27.3904 21.1742 27.3904C25.9812 27.3904 29.8794 31.2885 29.8794 36.0955C29.8794 36.1814 29.9494 36.2474 30.0334 36.2304C30.4688 36.1427 30.9527 36.0119 31.4754 35.8026C34.0879 34.6199 35.7757 31.9979 35.7757 29.1225C35.7757 25.1911 33.2519 22.3293 29.5234 21.8672Z" fill="#90ECF4"/>
<path fill-rule="evenodd" clip-rule="evenodd" d="M21.13 30.1586C19.6955 30.1586 18.3133 30.6811 17.2398 31.6295C16.749 32.0633 16.7031 32.8138 17.1384 33.3047C17.5707 33.7971 18.3244 33.8414 18.8136 33.4092C19.4517 32.8439 20.275 32.5336 21.13 32.5336C23.0649 32.5336 24.6371 34.1074 24.6371 36.0407C24.6371 36.6962 25.1691 37.2282 25.8246 37.2282C26.4801 37.2282 27.0121 36.6962 27.0121 36.0407C27.0121 32.798 24.3743 30.1586 21.13 30.1586Z" fill="#005DFD"/>
<path fill-rule="evenodd" clip-rule="evenodd" d="M23.4493 38.6697C22.808 39.235 21.9831 39.5469 21.1297 39.5469C19.1965 39.5469 17.6242 37.9746 17.6242 36.0398C17.6242 35.3843 17.0922 34.8523 16.4367 34.8523C15.7812 34.8523 15.2492 35.3843 15.2492 36.0398C15.2492 39.284 17.887 41.9219 21.1297 41.9219C22.5626 41.9219 23.9449 41.3994 25.02 40.451C25.5124 40.0171 25.5599 39.2666 25.126 38.7742C24.689 38.2818 23.9385 38.2375 23.4493 38.6697Z" fill="#005DFD"/>
<defs>
<linearGradient id="paint0_linear_7_11301" x1="30" y1="0" x2="30" y2="36" gradientUnits="userSpaceOnUse">
<stop stop-color="#DEDEDE"/>
<stop offset="1" stop-color="#DEDEDE" stop-opacity="0"/>
</linearGradient>
</defs>
</svg>
