<svg width="86" height="31" viewBox="0 0 86 31" fill="none" xmlns="http://www.w3.org/2000/svg">
<g id="Conflux logo" clip-path="url(#clip0_7_10950)">
<g id="Conflux" clip-path="url(#clip1_7_10950)">
<path id="Vector 1" d="M11.8777 2.91594L20.4383 8.05227L11.1287 13.8306L2.56812 8.80132L11.8777 2.91594Z" fill="#0058C1"/>
<path id="Vector 2" d="M2.56812 8.80132L20.6523 19.395L11.9847 24.7454L2.56812 18.86V8.80132Z" fill="#55A73D"/>
</g>
<path id="onflux" d="M33.449 10.604C34.4536 11.8635 34.956 13.3523 34.956 15.0704C34.956 16.8176 34.4536 18.3136 33.449 19.5585C32.4443 20.7962 30.9191 21.415 28.8734 21.415C26.8277 21.415 25.3026 20.7962 24.2979 19.5585C23.2932 18.3136 22.7909 16.8176 22.7909 15.0704C22.7909 13.3523 23.2932 11.8635 24.2979 10.604C25.3026 9.34457 26.8277 8.71484 28.8734 8.71484C30.9191 8.71484 32.4443 9.34457 33.449 10.604ZM28.8625 11.3466C27.9525 11.3466 27.25 11.6706 26.7549 12.3185C26.2672 12.9591 26.0233 13.8764 26.0233 15.0704C26.0233 16.2643 26.2672 17.1852 26.7549 17.8332C27.25 18.4811 27.9525 18.8051 28.8625 18.8051C29.7725 18.8051 30.4714 18.4811 30.9592 17.8332C31.447 17.1852 31.6908 16.2643 31.6908 15.0704C31.6908 13.8764 31.447 12.9591 30.9592 12.3185C30.4714 11.6706 29.7725 11.3466 28.8625 11.3466ZM41.5666 11.4012C40.511 11.4012 39.7866 11.8489 39.3935 12.7444C39.1896 13.2176 39.0877 13.8218 39.0877 14.5571V21H35.9864V9.11888H38.9894V10.8552C39.3898 10.2437 39.7684 9.80321 40.1251 9.53385C40.7658 9.05336 41.5775 8.81312 42.5603 8.81312C43.7906 8.81312 44.7953 9.13708 45.5743 9.78501C46.3605 10.4257 46.7536 11.4922 46.7536 12.9846V21H43.565V13.7599C43.565 13.1339 43.4812 12.6534 43.3138 12.3185C43.008 11.707 42.4256 11.4012 41.5666 11.4012ZM54.0632 4.80543V7.3389C53.9176 7.33162 53.7756 7.32798 53.6373 7.32798C53.4989 7.3207 53.3315 7.31706 53.1349 7.31706C52.6472 7.31706 52.3487 7.45174 52.2395 7.7211C52.1303 7.99047 52.083 8.41271 52.0975 8.98784V9.20624H54.1396V11.4012H52.0975V21H48.9962V11.4012H47.2599V9.20624H48.9634V8.44183C48.9634 7.1751 49.2437 6.23232 49.8043 5.61352C50.3066 5.03111 51.3295 4.7399 52.8729 4.7399C53.0621 4.7399 53.2551 4.74718 53.4516 4.76174C53.6482 4.77631 53.852 4.79087 54.0632 4.80543ZM59.0864 4.90371V21H55.9851V4.90371H59.0864ZM68.4817 19.3183C68.4526 19.3547 68.3798 19.4639 68.2633 19.6459C68.1468 19.8279 68.0085 19.9881 67.8483 20.1264C67.3605 20.5632 66.8873 20.8617 66.4287 21.0218C65.9773 21.182 65.4459 21.2621 64.8344 21.2621C63.0726 21.2621 61.8859 20.6287 61.2744 19.362C60.9322 18.6631 60.7611 17.633 60.7611 16.2716V9.09704H63.9498V16.2716C63.9498 16.9486 64.0299 17.4582 64.1901 17.8004C64.474 18.4046 65.0309 18.7068 65.8608 18.7068C66.9237 18.7068 67.6517 18.2772 68.0449 17.4182C68.2487 16.9523 68.3506 16.3371 68.3506 15.5727V9.09704H71.5066V21H68.4817V19.3183ZM83.8939 21H80.0173L77.9643 17.4291L75.9004 21H72.122L76.1843 14.9721L72.2967 9.11888H76.1079L78.0953 12.5696L80.0391 9.11888H83.7411L79.8316 14.9175L83.8939 21Z" fill="black"/>
<path id="TECHNOLOGIES" d="M23.5731 24.3501V23.9802H26.8425V24.3501H25.4136V28.489H25.002V24.3501H23.5731ZM28.9782 28.489V23.9802H31.5937V24.3501H29.3899V26.0475H31.455V26.4174H29.3899V28.1192H31.6377V28.489H28.9782ZM37.3994 25.3892H36.9855C36.9547 25.2351 36.8989 25.0928 36.8182 24.9621C36.739 24.83 36.6392 24.7148 36.5188 24.6165C36.3985 24.5182 36.262 24.4418 36.1093 24.3875C35.9567 24.3332 35.7916 24.3061 35.614 24.3061C35.3292 24.3061 35.0695 24.3802 34.8346 24.5284C34.6013 24.6767 34.4141 24.8946 34.2732 25.1823C34.1338 25.4685 34.0641 25.8193 34.0641 26.2346C34.0641 26.6529 34.1338 27.0052 34.2732 27.2914C34.4141 27.5776 34.6013 27.7948 34.8346 27.943C35.0695 28.0898 35.3292 28.1632 35.614 28.1632C35.7916 28.1632 35.9567 28.136 36.1093 28.0817C36.262 28.0274 36.3985 27.9518 36.5188 27.855C36.6392 27.7566 36.739 27.6414 36.8182 27.5093C36.8989 27.3772 36.9547 27.2341 36.9855 27.08H37.3994C37.3627 27.287 37.2938 27.48 37.1925 27.659C37.0927 27.8366 36.965 27.9922 36.8094 28.1258C36.6553 28.2593 36.4777 28.3635 36.2766 28.4384C36.0756 28.5132 35.8547 28.5507 35.614 28.5507C35.2353 28.5507 34.8992 28.456 34.6057 28.2667C34.3121 28.0759 34.0817 27.8073 33.9144 27.4609C33.7485 27.1145 33.6656 26.7058 33.6656 26.2346C33.6656 25.7635 33.7485 25.3547 33.9144 25.0084C34.0817 24.662 34.3121 24.3941 34.6057 24.2048C34.8992 24.014 35.2353 23.9186 35.614 23.9186C35.8547 23.9186 36.0756 23.956 36.2766 24.0309C36.4777 24.1043 36.6553 24.2085 36.8094 24.3435C36.965 24.4771 37.0927 24.6326 37.1925 24.8102C37.2938 24.9878 37.3627 25.1808 37.3994 25.3892ZM39.5754 28.489V23.9802H39.9871V26.0475H42.5453V23.9802H42.957V28.489H42.5453V26.4174H39.9871V28.489H39.5754ZM48.8728 23.9802V28.489H48.4721L45.8083 24.7134H45.773V28.489H45.3613V23.9802H45.7598L48.4325 27.7603H48.4677V23.9802H48.8728ZM54.9769 26.2346C54.9769 26.7043 54.8932 27.1131 54.7259 27.4609C54.5586 27.8073 54.3282 28.0759 54.0346 28.2667C53.7426 28.456 53.4064 28.5507 53.0263 28.5507C52.6462 28.5507 52.3093 28.456 52.0158 28.2667C51.7237 28.0759 51.494 27.8073 51.3267 27.4609C51.1609 27.1131 51.0779 26.7043 51.0779 26.2346C51.0779 25.765 51.1609 25.357 51.3267 25.0106C51.494 24.6627 51.7245 24.3941 52.018 24.2048C52.3115 24.014 52.6476 23.9186 53.0263 23.9186C53.4064 23.9186 53.7426 24.014 54.0346 24.2048C54.3282 24.3941 54.5586 24.6627 54.7259 25.0106C54.8932 25.357 54.9769 25.765 54.9769 26.2346ZM54.5762 26.2346C54.5762 25.831 54.5087 25.4854 54.3737 25.1977C54.2386 24.9086 54.0544 24.6877 53.8211 24.535C53.5877 24.3824 53.3228 24.3061 53.0263 24.3061C52.7313 24.3061 52.4671 24.3824 52.2338 24.535C52.0004 24.6877 51.8155 24.9078 51.679 25.1955C51.5439 25.4832 51.4764 25.8296 51.4764 26.2346C51.4764 26.6383 51.5439 26.9839 51.679 27.2716C51.814 27.5592 51.9982 27.7801 52.2316 27.9342C52.4649 28.0869 52.7298 28.1632 53.0263 28.1632C53.3228 28.1632 53.5877 28.0869 53.8211 27.9342C54.0559 27.7816 54.2408 27.5614 54.3759 27.2738C54.5109 26.9846 54.5777 26.6383 54.5762 26.2346ZM57.1815 28.489V23.9802H57.5932V28.1192H59.7419V28.489H57.1815ZM65.3985 26.2346C65.3985 26.7043 65.3148 27.1131 65.1475 27.4609C64.9802 27.8073 64.7498 28.0759 64.4562 28.2667C64.1641 28.456 63.828 28.5507 63.4479 28.5507C63.0678 28.5507 62.7309 28.456 62.4374 28.2667C62.1453 28.0759 61.9156 27.8073 61.7483 27.4609C61.5824 27.1131 61.4995 26.7043 61.4995 26.2346C61.4995 25.765 61.5824 25.357 61.7483 25.0106C61.9156 24.6627 62.146 24.3941 62.4396 24.2048C62.7331 24.014 63.0692 23.9186 63.4479 23.9186C63.828 23.9186 64.1641 24.014 64.4562 24.2048C64.7498 24.3941 64.9802 24.6627 65.1475 25.0106C65.3148 25.357 65.3985 25.765 65.3985 26.2346ZM64.9978 26.2346C64.9978 25.831 64.9303 25.4854 64.7953 25.1977C64.6602 24.9086 64.476 24.6877 64.2427 24.535C64.0093 24.3824 63.7444 24.3061 63.4479 24.3061C63.1529 24.3061 62.8887 24.3824 62.6553 24.535C62.422 24.6877 62.237 24.9078 62.1005 25.1955C61.9655 25.4832 61.898 25.8296 61.898 26.2346C61.898 26.6383 61.9655 26.9839 62.1005 27.2716C62.2356 27.5592 62.4198 27.7801 62.6531 27.9342C62.8865 28.0869 63.1514 28.1632 63.4479 28.1632C63.7444 28.1632 64.0093 28.0869 64.2427 27.9342C64.4775 27.7816 64.6624 27.5614 64.7975 27.2738C64.9325 26.9846 64.9993 26.6383 64.9978 26.2346ZM70.7226 25.3892C70.6816 25.2395 70.6214 25.0994 70.5421 24.9687C70.4629 24.8366 70.3645 24.7214 70.2471 24.6231C70.1312 24.5233 69.9969 24.4455 69.8442 24.3897C69.6931 24.334 69.5243 24.3061 69.3379 24.3061C69.0443 24.3061 68.7816 24.3824 68.5497 24.535C68.3178 24.6877 68.1344 24.9078 67.9993 25.1955C67.8658 25.4832 67.799 25.8296 67.799 26.2346C67.799 26.6383 67.8665 26.9839 68.0015 27.2716C68.1366 27.5592 68.3215 27.7801 68.5563 27.9342C68.7926 28.0869 69.0627 28.1632 69.3665 28.1632C69.6439 28.1632 69.889 28.1016 70.1018 27.9783C70.3146 27.855 70.4805 27.6789 70.5994 27.4499C70.7197 27.2209 70.7784 26.9487 70.7755 26.6331L70.9076 26.6749H69.4634V26.3051H71.1762V26.6749C71.1762 27.0595 71.0984 27.3919 70.9428 27.6723C70.7872 27.9526 70.5737 28.1691 70.3022 28.3217C70.0306 28.4744 69.7187 28.5507 69.3665 28.5507C68.9731 28.5507 68.629 28.456 68.334 28.2667C68.039 28.0759 67.8093 27.8073 67.6449 27.4609C67.482 27.1131 67.4005 26.7043 67.4005 26.2346C67.4005 25.8809 67.4475 25.5617 67.5414 25.277C67.6353 24.9922 67.7682 24.7486 67.9399 24.546C68.1131 24.3435 68.3178 24.1887 68.5541 24.0815C68.7904 23.9729 69.0517 23.9186 69.3379 23.9186C69.5844 23.9186 69.8097 23.9575 70.0137 24.0353C70.2192 24.1131 70.3998 24.2202 70.5553 24.3567C70.7124 24.4917 70.8408 24.648 70.9406 24.8256C71.0419 25.0018 71.1101 25.1896 71.1453 25.3892H70.7226ZM73.8189 23.9802V28.489H73.4072V23.9802H73.8189ZM76.2265 28.489V23.9802H78.842V24.3501H76.6382V26.0475H78.7033V26.4174H76.6382V28.1192H78.886V28.489H76.2265ZM83.5646 25.1074C83.5396 24.8565 83.4288 24.6569 83.2321 24.5086C83.0355 24.3604 82.7881 24.2863 82.4902 24.2863C82.2803 24.2863 82.0954 24.3222 81.9354 24.3941C81.7769 24.4661 81.6521 24.5659 81.5611 24.6935C81.4716 24.8198 81.4269 24.9636 81.4269 25.1251C81.4269 25.2439 81.4525 25.3481 81.5039 25.4377C81.5553 25.5272 81.6243 25.6043 81.7109 25.6688C81.7989 25.7319 81.8958 25.7863 82.0015 25.8318C82.1086 25.8773 82.2165 25.9154 82.3251 25.9462L82.8006 26.0827C82.9445 26.1224 83.0883 26.173 83.2321 26.2346C83.376 26.2963 83.5073 26.3741 83.6262 26.468C83.7466 26.5605 83.8427 26.6742 83.9146 26.8092C83.988 26.9428 84.0247 27.1035 84.0247 27.2914C84.0247 27.5321 83.9623 27.7486 83.8376 27.9408C83.7128 28.1331 83.5337 28.2858 83.3004 28.3988C83.067 28.5103 82.7874 28.5661 82.4616 28.5661C82.1548 28.5661 81.8884 28.5154 81.6624 28.4142C81.4364 28.3114 81.2588 28.1698 81.1296 27.9893C81.0005 27.8087 80.9278 27.5996 80.9117 27.3618H81.3344C81.3491 27.5394 81.4078 27.6899 81.5105 27.8132C81.6132 27.9364 81.7468 28.0304 81.9112 28.095C82.0756 28.1581 82.259 28.1896 82.4616 28.1896C82.6861 28.1896 82.8857 28.1522 83.0604 28.0773C83.2365 28.001 83.3745 27.8953 83.4743 27.7603C83.5756 27.6238 83.6262 27.4653 83.6262 27.2848C83.6262 27.1321 83.5866 27.0044 83.5073 26.9017C83.4281 26.7975 83.3173 26.7102 83.1749 26.6397C83.034 26.5693 82.8703 26.5069 82.6839 26.4526L82.1446 26.2941C81.7908 26.1884 81.5164 26.0424 81.3212 25.856C81.126 25.6696 81.0284 25.4318 81.0284 25.1427C81.0284 24.9005 81.0929 24.6877 81.2221 24.5042C81.3527 24.3193 81.5289 24.1754 81.7505 24.0727C81.9736 23.9685 82.2238 23.9164 82.5012 23.9164C82.7815 23.9164 83.0296 23.9678 83.2453 24.0705C83.4611 24.1732 83.6321 24.3149 83.7583 24.4954C83.886 24.6745 83.9542 24.8785 83.963 25.1074H83.5646Z" fill="#00040A"/>
</g>
<defs>
<clipPath id="clip0_7_10950">
<rect width="85.2473" height="30.489" fill="white"/>
</clipPath>
<clipPath id="clip1_7_10950">
<rect width="23.3275" height="23.5415" fill="white" transform="translate(0 2.05988)"/>
</clipPath>
</defs>
</svg>
