<svg width="48" height="48" viewBox="0 0 48 48" fill="none" xmlns="http://www.w3.org/2000/svg">
<g clip-path="url(#clip0_7_10841)">
<path d="M26.818 3.18198C28.5754 1.42462 31.4246 1.42462 33.182 3.18198L44.818 14.818C46.5754 16.5754 46.5754 19.4246 44.818 21.182L33.182 32.818C31.4246 34.5754 28.5754 34.5754 26.818 32.818L15.182 21.182C13.4246 19.4246 13.4246 16.5754 15.182 14.818L26.818 3.18198Z" fill="url(#paint0_linear_7_10841)"/>
<path d="M5.33332 21.3333C3.86056 21.3333 2.66666 22.5273 2.66666 24V37.3333C2.66666 38.8061 3.86056 40 5.33332 40H18.6667V24C18.6667 22.5273 17.4727 21.3333 16 21.3333H5.33332Z" fill="#90ECF4"/>
<path d="M22.1501 25.3333H18.6667V40H26.6667C28.1394 40 29.3333 38.8061 29.3333 37.3333V32.1181C29.3333 31.3681 29.0175 30.6528 28.4633 30.1475L23.9467 26.0295C23.4555 25.5816 22.8148 25.3333 22.1501 25.3333Z" fill="#005DFD"/>
<path fill-rule="evenodd" clip-rule="evenodd" d="M9.33332 42.6667C10.8061 42.6667 12 41.4728 12 40C12 38.5273 10.8061 37.3333 9.33332 37.3333C7.86056 37.3333 6.66666 38.5273 6.66666 40C6.66666 41.4728 7.86056 42.6667 9.33332 42.6667ZM25.8856 41.8856C26.3857 41.3855 26.6667 40.7073 26.6667 40H24L21.3333 40C21.3333 40.7073 21.6143 41.3855 22.1144 41.8856C22.6145 42.3857 23.2927 42.6667 24 42.6667C24.7072 42.6667 25.3855 42.3857 25.8856 41.8856Z" fill="#005DFD"/>
</g>
<defs>
<linearGradient id="paint0_linear_7_10841" x1="30" y1="0" x2="30" y2="36" gradientUnits="userSpaceOnUse">
<stop stop-color="#DEDEDE"/>
<stop offset="1" stop-color="#DEDEDE" stop-opacity="0"/>
</linearGradient>
<clipPath id="clip0_7_10841">
<rect width="48" height="48" fill="white"/>
</clipPath>
</defs>
</svg>
