<svg width="48" height="48" viewBox="0 0 48 48" fill="none" xmlns="http://www.w3.org/2000/svg">
<g clip-path="url(#clip0_7_11318)">
<path d="M26.818 3.18198C28.5754 1.42462 31.4246 1.42462 33.182 3.18198L44.818 14.818C46.5754 16.5754 46.5754 19.4246 44.818 21.182L33.182 32.818C31.4246 34.5754 28.5754 34.5754 26.818 32.818L15.182 21.182C13.4246 19.4246 13.4246 16.5754 15.182 14.818L26.818 3.18198Z" fill="url(#paint0_linear_7_11318)"/>
<path d="M20.7575 20C20.421 20 20.0932 19.9999 19.8157 20.0226C19.5109 20.0475 19.1513 20.1063 18.7894 20.2907C18.2876 20.5463 17.8797 20.9543 17.624 21.456C17.4396 21.8179 17.3808 22.1776 17.3559 22.4824C17.3333 22.7599 17.3333 23.0876 17.3333 23.4241V27.2425C17.3333 27.579 17.3333 27.9068 17.3559 28.1843C17.3808 28.4891 17.4396 28.8488 17.624 29.2106C17.8797 29.7124 18.2876 30.1204 18.7894 30.376C19.1513 30.5604 19.5109 30.6192 19.8157 30.6441C20.0932 30.6668 20.4209 30.6667 20.7574 30.6667H24.5759C24.9124 30.6667 25.2401 30.6668 25.5176 30.6441C25.8224 30.6192 26.1821 30.5604 26.544 30.376C27.0457 30.1204 27.4537 29.7124 27.7094 29.2106C27.8938 28.8488 27.9525 28.4891 27.9774 28.1843C28.0001 27.9068 28.0001 27.579 28 27.2425V23.4241C28.0001 23.0876 28.0001 22.7599 27.9774 22.4824C27.9525 22.1776 27.8938 21.8179 27.7094 21.456C27.4537 20.9543 27.0457 20.5463 26.544 20.2907C26.1821 20.1063 25.8224 20.0475 25.5176 20.0226C25.2401 19.9999 24.9124 20 24.5759 20L20.7575 20Z" fill="#90ECF4"/>
<path d="M7.42414 33.3333C7.08763 33.3333 6.75991 33.3333 6.48237 33.3559C6.17758 33.3808 5.81793 33.4396 5.45603 33.624C4.95427 33.8797 4.54632 34.2876 4.29066 34.7894C4.10626 35.1513 4.0475 35.5109 4.0226 35.8157C3.99992 36.0932 3.99996 36.421 4 36.7575L4 40.5759C3.99996 40.9124 3.99992 41.2401 4.0226 41.5176C4.0475 41.8224 4.10626 42.1821 4.29066 42.544C4.54632 43.0457 4.95427 43.4537 5.45603 43.7094C5.81793 43.8938 6.17758 43.9525 6.48237 43.9774C6.75991 44.0001 7.08763 44.0001 7.42414 44H11.2425C11.579 44.0001 11.9068 44.0001 12.1843 43.9774C12.4891 43.9525 12.8488 43.8938 13.2106 43.7094C13.7124 43.4537 14.1204 43.0457 14.376 42.544C14.5604 42.1821 14.6192 41.8224 14.6441 41.5176C14.6668 41.2401 14.6667 40.9124 14.6667 40.5759V36.7575C14.6667 36.421 14.6668 36.0932 14.6441 35.8157C14.6192 35.5109 14.5604 35.1513 14.376 34.7894C14.1204 34.2876 13.7124 33.8797 13.2106 33.624C12.8488 33.4396 12.4891 33.3808 12.1843 33.3559C11.9068 33.3333 11.579 33.3333 11.2425 33.3333H7.42414Z" fill="#90ECF4"/>
<path d="M20.7575 33.3333C20.421 33.3333 20.0932 33.3333 19.8157 33.3559C19.5109 33.3808 19.1513 33.4396 18.7894 33.624C18.2876 33.8797 17.8797 34.2876 17.624 34.7894C17.4396 35.1513 17.3808 35.5109 17.3559 35.8157C17.3333 36.0932 17.3333 36.421 17.3333 36.7575V40.5759C17.3333 40.9124 17.3333 41.2401 17.3559 41.5176C17.3808 41.8224 17.4396 42.1821 17.624 42.544C17.8797 43.0457 18.2876 43.4537 18.7894 43.7094C19.1513 43.8938 19.5109 43.9525 19.8157 43.9774C20.0932 44.0001 20.421 44.0001 20.7575 44H24.5759C24.9124 44.0001 25.2401 44.0001 25.5176 43.9774C25.8224 43.9525 26.1821 43.8938 26.544 43.7094C27.0457 43.4537 27.4537 43.0457 27.7094 42.544C27.8938 42.1821 27.9525 41.8224 27.9774 41.5176C28.0001 41.2401 28.0001 40.9124 28 40.5759V36.7575C28.0001 36.421 28.0001 36.0932 27.9774 35.8157C27.9525 35.5109 27.8938 35.1513 27.7094 34.7894C27.4537 34.2876 27.0457 33.8797 26.544 33.624C26.1821 33.4396 25.8224 33.3808 25.5176 33.3559C25.2401 33.3333 24.9124 33.3333 24.5759 33.3333H20.7575Z" fill="#90ECF4"/>
<path d="M7.42414 20C7.08764 20 6.75991 19.9999 6.48237 20.0226C6.17758 20.0475 5.81793 20.1063 5.45603 20.2907C4.95427 20.5463 4.54632 20.9543 4.29066 21.456C4.10626 21.8179 4.0475 22.1776 4.0226 22.4824C3.99992 22.7599 3.99996 23.0876 4 23.4241L4 27.2425C3.99996 27.579 3.99992 27.9068 4.0226 28.1843C4.0475 28.4891 4.10626 28.8487 4.29066 29.2106C4.54632 29.7124 4.95427 30.1204 5.45603 30.376C5.81793 30.5604 6.17758 30.6192 6.48237 30.6441C6.7599 30.6668 7.0876 30.6667 7.4241 30.6667H11.2425C11.579 30.6667 11.9068 30.6668 12.1843 30.6441C12.4891 30.6192 12.8487 30.5604 13.2106 30.376C13.7124 30.1204 14.1204 29.7124 14.376 29.2106C14.5604 28.8487 14.6192 28.4891 14.6441 28.1843C14.6668 27.9068 14.6667 27.5791 14.6667 27.2426V23.4241C14.6667 23.0876 14.6668 22.7599 14.6441 22.4824C14.6192 22.1776 14.5604 21.8179 14.376 21.456C14.1204 20.9543 13.7124 20.5463 13.2106 20.2907C12.8487 20.1063 12.4891 20.0475 12.1843 20.0226C11.9068 19.9999 11.5791 20 11.2426 20L7.42414 20Z" fill="#005DFD"/>
</g>
<defs>
<linearGradient id="paint0_linear_7_11318" x1="30" y1="0" x2="30" y2="36" gradientUnits="userSpaceOnUse">
<stop stop-color="#DEDEDE"/>
<stop offset="1" stop-color="#DEDEDE" stop-opacity="0"/>
</linearGradient>
<clipPath id="clip0_7_11318">
<rect width="48" height="48" fill="white"/>
</clipPath>
</defs>
</svg>
