<svg width="48" height="48" viewBox="0 0 48 48" fill="none" xmlns="http://www.w3.org/2000/svg">
<g clip-path="url(#clip0_7_11279)">
<path d="M26.818 3.18198C28.5754 1.42462 31.4246 1.42462 33.182 3.18198L44.818 14.818C46.5754 16.5754 46.5754 19.4246 44.818 21.182L33.182 32.818C31.4246 34.5754 28.5754 34.5754 26.818 32.818L15.182 21.182C13.4246 19.4246 13.4246 16.5754 15.182 14.818L26.818 3.18198Z" fill="url(#paint0_linear_7_11279)"/>
<path fill-rule="evenodd" clip-rule="evenodd" d="M5.92797 33.2398C6.48531 33.8292 7.16664 34.1985 7.87731 34.5078C8.92131 34.9612 10.008 35.2452 11.112 35.4585C12.192 35.6678 13.2786 35.7958 14.3707 35.8558C16.4827 35.9718 18.5853 35.8772 20.6747 35.5012C21.9453 35.2718 23.1933 34.9478 24.3813 34.3932C25.016 34.0972 25.6213 33.7438 26.112 33.1985C26.4547 32.8185 26.6373 32.3758 26.632 31.8278C26.6216 30.622 26.6201 28.3983 26.618 27.4499C26.6176 27.2482 26.4077 27.1322 26.2357 27.2376C26.1365 27.2984 26.0389 27.3571 25.94 27.4131C24.216 28.3891 22.3507 28.8371 20.448 29.1265C19.5613 29.2611 18.6667 29.3412 17.7733 29.4038C16.044 29.5265 14.316 29.4692 12.592 29.2731C11.3453 29.1318 10.1106 28.9051 8.89464 28.5611C7.93331 28.2878 6.99331 27.9491 6.11197 27.4425C6.00108 27.3783 5.89105 27.3118 5.77809 27.2427C5.60091 27.1343 5.37532 27.2605 5.37581 27.4682C5.37807 28.4304 5.38175 30.6182 5.36931 31.7985C5.36264 32.3812 5.55597 32.8465 5.92797 33.2398Z" fill="#90ECF4"/>
<path fill-rule="evenodd" clip-rule="evenodd" d="M26.6272 35.9851C26.6273 35.8943 26.53 35.8451 26.4503 35.8883C25.9503 36.159 25.4623 36.4643 24.9463 36.6936C23.1183 37.5043 21.1956 37.8816 19.2423 38.1043C18.0569 38.2376 16.8676 38.2816 15.6769 38.2736C14.5116 38.2656 13.3489 38.207 12.1956 38.0336C11.2142 37.887 10.2369 37.6963 9.26758 37.4696C8.13425 37.2043 7.03825 36.8056 6.01291 36.199C5.93555 36.1535 5.85877 36.1071 5.78053 36.0591C5.60293 35.9503 5.37662 36.0763 5.37735 36.2846C5.38074 37.2404 5.38621 39.3975 5.36758 40.5616C5.35558 41.259 5.61825 41.775 6.08225 42.207C6.62091 42.7083 7.24625 43.043 7.89958 43.3203C9.06225 43.8136 10.2716 44.111 11.5009 44.3216C12.6676 44.523 13.8423 44.635 15.0223 44.671C17.0543 44.735 19.0756 44.6163 21.0783 44.2163C22.2303 43.9856 23.3596 43.6776 24.4369 43.1656C25.0503 42.8736 25.6343 42.527 26.1089 41.999C26.4556 41.6136 26.6369 41.1656 26.6329 40.6123C26.6215 39.2928 26.6257 36.7335 26.6272 35.9851Z" fill="#90ECF4"/>
<path fill-rule="evenodd" clip-rule="evenodd" d="M6.06029 24.5916C6.67095 25.1756 7.39762 25.5383 8.15095 25.8409C9.50962 26.3863 10.9216 26.6849 12.3536 26.8783C13.5616 27.0409 14.7763 27.1236 15.7563 27.1089C18.0416 27.1116 20.0683 26.9196 22.0643 26.4156C23.0576 26.1649 24.0296 25.8383 24.9389 25.3223C25.4389 25.0396 25.9056 24.7076 26.2669 24.2249C26.7443 23.5849 26.7523 22.8396 26.2656 22.2089C26.1003 21.9929 25.9069 21.7929 25.7003 21.6236C24.9256 20.9903 24.0336 20.6223 23.1176 20.3183C21.4856 19.7783 19.8083 19.5116 18.1123 19.3916C15.7976 19.2263 13.4923 19.3103 11.2016 19.7369C9.95762 19.9676 8.73762 20.2916 7.57629 20.8396C6.95629 21.1316 6.36562 21.4796 5.89095 22.0156C5.49629 22.4609 5.26429 22.9689 5.43095 23.6049C5.53629 24.0103 5.77629 24.3209 6.06029 24.5916Z" fill="#005DFD"/>
</g>
<defs>
<linearGradient id="paint0_linear_7_11279" x1="30" y1="0" x2="30" y2="36" gradientUnits="userSpaceOnUse">
<stop stop-color="#DEDEDE"/>
<stop offset="1" stop-color="#DEDEDE" stop-opacity="0"/>
</linearGradient>
<clipPath id="clip0_7_11279">
<rect width="48" height="48" fill="white"/>
</clipPath>
</defs>
</svg>
