<svg width="106" height="31" viewBox="0 0 106 31" fill="none" xmlns="http://www.w3.org/2000/svg">
<g id="Natep logo" clip-path="url(#clip0_7_10966)">
<g id="Logo Group" clip-path="url(#clip1_7_10966)">
<g id="Vector 1">
<path d="M67.9185 22.5708V17.2739C69.1544 17.1856 71.6263 16.3734 71.6263 13.8309C71.6263 11.2884 70.2138 10.6527 69.5075 10.6527V5.88549H76.3936L78.2475 8.00427H89.3711L92.0195 5.88549H93.6086L95.1977 11.072C94.7016 11.0941 94.2137 11.1261 93.734 11.1675C81.3318 12.2381 74.4032 19.5966 72.1454 23.8951C71.1354 23.1208 69.7579 22.5708 67.9185 22.5708Z" fill="#F4BF44"/>
<path d="M74.3224 26.983C74.488 27.4806 74.9276 27.8678 75.452 27.8678H81.1608C81.4256 26.2787 81.1608 23.4032 83.5444 22.0411C85.0276 21.1936 86.546 22.0411 86.9874 22.5708H88.5765L93.6086 11.4473L93.734 11.1675C81.3318 12.2381 74.4032 19.5966 72.1454 23.8951C73.3153 24.7919 73.992 25.9899 74.3224 26.983Z" fill="#FCF094"/>
<path d="M81.1608 27.8678V29.192H82.2826L82.467 28.0855L81.1608 27.8678ZM67.9185 22.5708H66.5942V23.8951H67.9185V22.5708ZM67.9185 17.2739L67.8241 15.953L66.5942 16.0409V17.2739H67.9185ZM69.5075 10.6527H68.1833V11.977H69.5075V10.6527ZM69.5075 5.88549V4.56126H68.1833V5.88549H69.5075ZM76.3936 5.88549L77.3901 5.01348L76.9945 4.56126H76.3936V5.88549ZM78.2475 8.00427L77.2509 8.87628L77.6466 9.3285H78.2475V8.00427ZM89.3711 8.00427V9.3285H89.8356L90.1983 9.03832L89.3711 8.00427ZM92.0195 5.88549V4.56126H91.555L91.1923 4.85144L92.0195 5.88549ZM93.6086 5.88549L94.8747 5.49756L94.5879 4.56126H93.6086V5.88549ZM95.1977 11.072L95.2565 12.395L96.9647 12.319L96.4638 10.6841L95.1977 11.072ZM93.6086 11.4473L94.8151 11.9931L94.817 11.9889L93.6086 11.4473ZM88.5765 22.5708V23.8951H89.4309L89.783 23.1166L88.5765 22.5708ZM86.9874 22.5708L85.9701 23.4186L86.3672 23.8951H86.9874V22.5708ZM83.5444 22.0411L84.2014 23.1909L83.5444 22.0411ZM104.202 11.7121L105.023 12.7515L105.079 10.7192L104.202 11.7121ZM98.3498 14.6455L97.3105 15.466L98.9516 17.5447L99.9909 16.7242L98.3498 14.6455ZM100.576 6.74646L99.5833 5.87032L97.831 7.85624L98.8239 8.73238L100.576 6.74646ZM81.1608 26.5435H75.452V29.192H81.1608V26.5435ZM69.2427 22.5708V17.2739H66.5942V22.5708H69.2427ZM68.0128 18.5948C68.8069 18.5381 69.9762 18.2594 70.9869 17.5634C72.0509 16.8307 72.9505 15.6137 72.9505 13.8309H70.3021C70.3021 14.5907 69.9657 15.051 69.4849 15.3821C68.9506 15.7499 68.266 15.9215 67.8241 15.953L68.0128 18.5948ZM72.9505 13.8309C72.9505 12.3104 72.523 11.1658 71.8034 10.3887C71.1023 9.63142 70.2159 9.3285 69.5075 9.3285V11.977C69.5054 11.977 69.6784 11.9919 69.8601 12.1881C70.0234 12.3644 70.3021 12.8089 70.3021 13.8309H72.9505ZM70.8318 10.6527V5.88549H68.1833V10.6527H70.8318ZM69.5075 7.20972H76.3936V4.56126H69.5075V7.20972ZM75.397 6.7575L77.2509 8.87628L79.2441 7.13225L77.3901 5.01348L75.397 6.7575ZM78.2475 9.3285H89.3711V6.68003H78.2475V9.3285ZM90.1983 9.03832L92.8468 6.91954L91.1923 4.85144L88.5438 6.97021L90.1983 9.03832ZM92.0195 7.20972H93.6086V4.56126H92.0195V7.20972ZM92.3425 6.27342L93.9315 11.46L96.4638 10.6841L94.8747 5.49756L92.3425 6.27342ZM92.4021 10.9015L87.37 22.025L89.783 23.1166L94.8151 11.9931L92.4021 10.9015ZM88.5765 21.2466H86.9874V23.8951H88.5765V21.2466ZM88.0047 21.7231C87.589 21.2243 86.8541 20.7477 86.0108 20.5136C85.1204 20.2664 83.9937 20.2592 82.8874 20.8914L84.2014 23.1909C84.5783 22.9756 84.9524 22.9684 85.3024 23.0655C85.4827 23.1156 85.6458 23.1917 85.7755 23.2718C85.9144 23.3577 85.9727 23.4217 85.9701 23.4186L88.0047 21.7231ZM82.8874 20.8914C81.2713 21.8149 80.5875 23.2579 80.2714 24.5561C80.116 25.1943 80.0428 25.8212 79.9917 26.3513C79.9365 26.9228 79.9108 27.3128 79.8546 27.6501L82.467 28.0855C82.5432 27.6282 82.5837 27.0629 82.6279 26.6058C82.676 26.1072 82.7353 25.6322 82.8447 25.1826C83.0583 24.3053 83.4339 23.6295 84.2014 23.1909L82.8874 20.8914ZM75.579 26.565C75.1843 25.3786 74.3749 23.9357 72.9511 22.8442L71.3397 24.946C72.2556 25.6482 72.7998 26.6012 73.0659 27.401L75.579 26.565ZM72.9511 22.8442C71.7036 21.8877 70.0411 21.2466 67.9185 21.2466V23.8951C69.4747 23.8951 70.5673 24.3538 71.3397 24.946L72.9511 22.8442ZM103.382 10.6728L98.3498 14.6455L99.9909 16.7242L105.023 12.7515L103.382 10.6728ZM105.079 10.7192L100.576 6.74646L98.8239 8.73238L103.326 12.7051L105.079 10.7192ZM95.1389 9.74911C94.6245 9.77198 94.1182 9.80518 93.6201 9.84818L93.8479 12.4868C94.3092 12.447 94.7787 12.4162 95.2565 12.395L95.1389 9.74911ZM93.6201 9.84818C80.7155 10.9622 73.4148 18.6305 70.9731 23.2793L73.3178 24.5109C75.3916 20.5626 81.9482 13.5141 93.8479 12.4868L93.6201 9.84818ZM93.8479 12.4868C96.8617 12.2267 100.231 12.351 103.971 13.0159L104.434 10.4083C100.478 9.70507 96.877 9.56703 93.6201 9.84818L93.8479 12.4868ZM92.5256 10.6259L92.4002 10.9057L94.817 11.9889L94.9424 11.7091L92.5256 10.6259ZM75.452 26.5435C75.4857 26.5435 75.5171 26.5501 75.5424 26.5596C75.5667 26.5687 75.5808 26.5787 75.5865 26.5833C75.5919 26.5877 75.5913 26.5884 75.588 26.5836C75.5848 26.5788 75.5814 26.5722 75.579 26.565L73.0659 27.401C73.3712 28.3189 74.2395 29.192 75.452 29.192V26.5435Z" fill="#2A643E"/>
</g>
</g>
<path id="NATEP" d="M1.80397 18V3.67597H4.61797L10.4805 13.2416V3.67597H13.1674V18H10.2655L4.49095 8.65909V18H1.80397ZM28.6522 18H25.506L24.2554 14.7463H18.5297L17.3474 18H14.2794L19.8585 3.67597H22.9168L28.6522 18ZM23.3271 12.3329L21.3534 7.01759L19.4188 12.3329H23.3271ZM31.435 18V6.09913H27.1847V3.67597H38.5677V6.09913H34.3271V18H31.435ZM39.9434 18V3.67597H50.5643V6.09913H42.8356V9.27465H50.0269V11.688H42.8356V15.5866H50.8379V18H39.9434ZM52.7901 18V3.67597H57.4312C59.19 3.67597 60.3364 3.74762 60.8706 3.89093C61.6913 4.10588 62.3785 4.57488 62.9322 5.29793C63.4859 6.01445 63.7627 6.94268 63.7627 8.08261C63.7627 8.96199 63.6031 9.70131 63.284 10.3006C62.9648 10.8999 62.5577 11.3721 62.0626 11.7174C61.5741 12.0561 61.0758 12.2808 60.5677 12.3915C59.8772 12.5283 58.8773 12.5967 57.568 12.5967H55.6823V18H52.7901ZM55.6823 6.09913V10.1638H57.2651C58.4051 10.1638 59.1672 10.0889 59.5515 9.93907C59.9358 9.78925 60.2355 9.55475 60.4504 9.23557C60.6719 8.91639 60.7826 8.5451 60.7826 8.12169C60.7826 7.60058 60.6296 7.17067 60.3234 6.83195C60.0173 6.49322 59.6297 6.28152 59.1607 6.19684C58.8154 6.1317 58.1217 6.09913 57.0795 6.09913H55.6823Z" fill="#06653B"/>
<path id="NATIONAL TALENT EXPORT PROGRAMME" d="M1.52657 24.5992V21.2288H2.18869L3.5681 23.4796V21.2288H4.20033V24.5992H3.51752L2.1588 22.4013V24.5992H1.52657ZM7.86736 24.5992H7.12707L6.8328 23.8336H5.48558L5.20739 24.5992H4.4855L5.79824 21.2288H6.51783L7.86736 24.5992ZM6.61439 23.2658L6.14999 22.0151L5.69479 23.2658H6.61439ZM8.54566 24.5992V21.799H7.54559V21.2288H10.2239V21.799H9.22617V24.5992H8.54566ZM10.5505 24.5992V21.2288H11.231V24.5992H10.5505ZM11.6495 22.9347C11.6495 22.5914 11.7009 22.3032 11.8036 22.0703C11.8802 21.8986 11.9844 21.7446 12.1162 21.6082C12.2496 21.4718 12.3952 21.3706 12.553 21.3047C12.763 21.2158 13.0052 21.1714 13.2795 21.1714C13.7761 21.1714 14.1731 21.3254 14.4704 21.6335C14.7693 21.9415 14.9187 22.3699 14.9187 22.9186C14.9187 23.4627 14.7708 23.8888 14.475 24.1969C14.1792 24.5034 13.7838 24.6567 13.2887 24.6567C12.7875 24.6567 12.389 24.5042 12.0932 24.1992C11.7974 23.8926 11.6495 23.4711 11.6495 22.9347ZM12.3507 22.9117C12.3507 23.2934 12.4388 23.583 12.6151 23.7807C12.7914 23.9769 13.0151 24.075 13.2864 24.075C13.5577 24.075 13.7799 23.9777 13.9531 23.783C14.1279 23.5869 14.2152 23.2934 14.2152 22.9025C14.2152 22.5163 14.1302 22.2281 13.96 22.0381C13.7914 21.848 13.5669 21.753 13.2864 21.753C13.0059 21.753 12.7799 21.8496 12.6082 22.0427C12.4365 22.2343 12.3507 22.524 12.3507 22.9117ZM15.3648 24.5992V21.2288H16.0269L17.4064 23.4796V21.2288H18.0386V24.5992H17.3558L15.9971 22.4013V24.5992H15.3648ZM21.7056 24.5992H20.9653L20.671 23.8336H19.3238L19.0456 24.5992H18.3238L19.6365 21.2288H20.3561L21.7056 24.5992ZM20.4526 23.2658L19.9882 22.0151L19.533 23.2658H20.4526ZM21.9931 24.5992V21.2564H22.6736V24.0313H24.3657V24.5992H21.9931ZM26.6465 24.5992V21.799H25.6464V21.2288H28.3248V21.799H27.327V24.5992H26.6465ZM31.3619 24.5992H30.6216L30.3273 23.8336H28.9801L28.7019 24.5992H27.98L29.2927 21.2288H30.0123L31.3619 24.5992ZM30.1089 23.2658L29.6445 22.0151L29.1893 23.2658H30.1089ZM31.6493 24.5992V21.2564H32.3298V24.0313H34.0219V24.5992H31.6493ZM34.4151 24.5992V21.2288H36.9142V21.799H35.0956V22.5462H36.7877V23.114H35.0956V24.0313H36.9785V24.5992H34.4151ZM37.4683 24.5992V21.2288H38.1304L39.5098 23.4796V21.2288H40.1421V24.5992H39.4593L38.1005 22.4013V24.5992H37.4683ZM41.5285 24.5992V21.799H40.5284V21.2288H43.2068V21.799H42.209V24.5992H41.5285ZM44.7703 24.5992V21.2288H47.2693V21.799H45.4508V22.5462H47.1429V23.114H45.4508V24.0313H47.3337V24.5992H44.7703ZM47.474 24.5992L48.6258 22.8404L47.5821 21.2288H48.3775L49.0534 22.3117L49.7156 21.2288H50.5041L49.4558 22.8657L50.6076 24.5992H49.7868L49.0396 23.4336L48.2902 24.5992H47.474ZM50.8629 24.5992V21.2288H51.9549C52.3687 21.2288 52.6385 21.2457 52.7641 21.2794C52.9573 21.33 53.119 21.4403 53.2492 21.6105C53.3795 21.7791 53.4447 21.9975 53.4447 22.2657C53.4447 22.4726 53.4071 22.6466 53.332 22.7876C53.2569 22.9286 53.1611 23.0397 53.0446 23.1209C52.9297 23.2006 52.8124 23.2535 52.6929 23.2796C52.5304 23.3117 52.2951 23.3278 51.9871 23.3278H51.5434V24.5992H50.8629ZM51.5434 21.799V22.7554H51.9158C52.184 22.7554 52.3633 22.7378 52.4538 22.7025C52.5442 22.6673 52.6147 22.6121 52.6653 22.537C52.7174 22.4619 52.7435 22.3745 52.7435 22.2749C52.7435 22.1523 52.7074 22.0511 52.6354 21.9714C52.5634 21.8917 52.4722 21.8419 52.3618 21.822C52.2806 21.8067 52.1174 21.799 51.8721 21.799H51.5434ZM53.7712 22.9347C53.7712 22.5914 53.8226 22.3032 53.9252 22.0703C54.0019 21.8986 54.1061 21.7446 54.2379 21.6082C54.3712 21.4718 54.5169 21.3706 54.6747 21.3047C54.8847 21.2158 55.1269 21.1714 55.4012 21.1714C55.8978 21.1714 56.2948 21.3254 56.5921 21.6335C56.891 21.9415 57.0404 22.3699 57.0404 22.9186C57.0404 23.4627 56.8925 23.8888 56.5967 24.1969C56.3009 24.5034 55.9055 24.6567 55.4104 24.6567C54.9092 24.6567 54.5107 24.5042 54.2149 24.1992C53.9191 23.8926 53.7712 23.4711 53.7712 22.9347ZM54.4724 22.9117C54.4724 23.2934 54.5605 23.583 54.7368 23.7807C54.9131 23.9769 55.1368 24.075 55.4081 24.075C55.6794 24.075 55.9016 23.9777 56.0748 23.783C56.2495 23.5869 56.3369 23.2934 56.3369 22.9025C56.3369 22.5163 56.2518 22.2281 56.0817 22.0381C55.9131 21.848 55.6886 21.753 55.4081 21.753C55.1276 21.753 54.9016 21.8496 54.7299 22.0427C54.5582 22.2343 54.4724 22.524 54.4724 22.9117ZM57.4819 24.5992V21.2288H58.9142C59.2744 21.2288 59.5357 21.2595 59.6982 21.3208C59.8622 21.3806 59.9932 21.4879 60.0913 21.6427C60.1894 21.7975 60.2384 21.9745 60.2384 22.1737C60.2384 22.4266 60.1641 22.6358 60.0154 22.8014C59.8668 22.9654 59.6445 23.0688 59.3487 23.1117C59.4959 23.1976 59.6169 23.2918 59.712 23.3945C59.8085 23.4972 59.938 23.6796 60.1005 23.9417L60.512 24.5992H59.6982L59.2062 23.8658C59.0315 23.6037 58.9119 23.439 58.8475 23.3715C58.7832 23.3026 58.715 23.2558 58.6429 23.2313C58.5709 23.2052 58.4567 23.1922 58.3004 23.1922H58.1624V24.5992H57.4819ZM58.1624 22.6542H58.6659C58.9924 22.6542 59.1962 22.6404 59.2774 22.6128C59.3587 22.5853 59.4223 22.5377 59.4683 22.4703C59.5142 22.4029 59.5372 22.3186 59.5372 22.2174C59.5372 22.104 59.5066 22.0128 59.4453 21.9438C59.3855 21.8733 59.3004 21.8289 59.1901 21.8105C59.1349 21.8028 58.9694 21.799 58.6935 21.799H58.1624V22.6542ZM61.5467 24.5992V21.799H60.5466V21.2288H63.225V21.799H62.2272V24.5992H61.5467ZM1.51968 29.5992V26.2288H2.61171C3.02553 26.2288 3.29529 26.2457 3.42097 26.2794C3.61408 26.33 3.77578 26.4403 3.90606 26.6105C4.03634 26.7791 4.10147 26.9975 4.10147 27.2657C4.10147 27.4726 4.06392 27.6466 3.98882 27.7876C3.91372 27.9286 3.81793 28.0397 3.70145 28.1209C3.58649 28.2006 3.46924 28.2535 3.3497 28.2796C3.18723 28.3117 2.95197 28.3278 2.6439 28.3278H2.20019V29.5992H1.51968ZM2.20019 26.799V27.7554H2.57263C2.84085 27.7554 3.02017 27.7378 3.1106 27.7025C3.20103 27.6673 3.27153 27.6121 3.32211 27.537C3.37422 27.4619 3.40027 27.3745 3.40027 27.2749C3.40027 27.1523 3.36426 27.0511 3.29222 26.9714C3.22018 26.8917 3.12899 26.8419 3.01864 26.822C2.93741 26.8067 2.77418 26.799 2.52895 26.799H2.20019ZM4.56827 29.5992V26.2288H6.00056C6.36074 26.2288 6.62206 26.2595 6.78452 26.3208C6.94852 26.3806 7.07956 26.4879 7.17765 26.6427C7.27574 26.7975 7.32479 26.9745 7.32479 27.1737C7.32479 27.4266 7.25046 27.6358 7.10179 27.8014C6.95312 27.9654 6.73088 28.0688 6.43507 28.1117C6.58221 28.1976 6.70329 28.2918 6.79832 28.3945C6.89487 28.4972 7.02439 28.6796 7.18685 28.9417L7.59837 29.5992H6.78452L6.29253 28.8658C6.11781 28.6037 5.99826 28.439 5.93388 28.3715C5.86951 28.3026 5.80131 28.2558 5.72927 28.2313C5.65724 28.2052 5.54305 28.1922 5.38672 28.1922H5.24878V29.5992H4.56827ZM5.24878 27.6542H5.75226C6.07872 27.6542 6.28257 27.6404 6.3638 27.6128C6.44503 27.5853 6.50864 27.5377 6.55462 27.4703C6.6006 27.4029 6.62359 27.3186 6.62359 27.2174C6.62359 27.104 6.59294 27.0128 6.53163 26.9438C6.47185 26.8733 6.38679 26.8289 6.27644 26.8105C6.22126 26.8028 6.05573 26.799 5.77985 26.799H5.24878V27.6542ZM7.73641 27.9347C7.73641 27.5914 7.78775 27.3032 7.89044 27.0703C7.96707 26.8986 8.0713 26.7446 8.20311 26.6082C8.33645 26.4718 8.48205 26.3706 8.63992 26.3047C8.8499 26.2158 9.09206 26.1714 9.36641 26.1714C9.863 26.1714 10.26 26.3254 10.5573 26.6335C10.8562 26.9415 11.0056 27.3699 11.0056 27.9186C11.0056 28.4627 10.8577 28.8888 10.5619 29.1969C10.2661 29.5034 9.87066 29.6567 9.37561 29.6567C8.87442 29.6567 8.47592 29.5042 8.18012 29.1992C7.88431 28.8926 7.73641 28.4711 7.73641 27.9347ZM8.43761 27.9117C8.43761 28.2934 8.52574 28.583 8.70199 28.7807C8.87825 28.9769 9.10202 29.075 9.37331 29.075C9.64459 29.075 9.86683 28.9777 10.04 28.783C10.2147 28.5869 10.3021 28.2934 10.3021 27.9025C10.3021 27.5163 10.217 27.2281 10.0469 27.0381C9.87832 26.848 9.65379 26.753 9.37331 26.753C9.09283 26.753 8.86676 26.8496 8.6951 27.0427C8.52344 27.2343 8.43761 27.524 8.43761 27.9117ZM13.0127 28.36V27.7922H14.4795V29.1348C14.337 29.2727 14.1301 29.3946 13.8588 29.5003C13.589 29.6046 13.3154 29.6567 13.038 29.6567C12.6855 29.6567 12.3782 29.5831 12.1161 29.436C11.854 29.2873 11.6571 29.0758 11.5253 28.8014C11.3935 28.5256 11.3276 28.2259 11.3276 27.9025C11.3276 27.5515 11.4011 27.2396 11.5483 26.9668C11.6954 26.694 11.9107 26.4848 12.1943 26.3392C12.4104 26.2273 12.6794 26.1714 13.0012 26.1714C13.4197 26.1714 13.7461 26.2595 13.9806 26.4357C14.2167 26.6105 14.3684 26.8526 14.4358 27.1622L13.7599 27.2887C13.7124 27.1232 13.6228 26.9929 13.4909 26.8979C13.3607 26.8013 13.1974 26.753 13.0012 26.753C12.7039 26.753 12.4671 26.8473 12.2909 27.0358C12.1161 27.2243 12.0288 27.504 12.0288 27.8749C12.0288 28.275 12.1177 28.5754 12.2955 28.7761C12.4732 28.9754 12.7062 29.075 12.9944 29.075C13.1369 29.075 13.2794 29.0474 13.422 28.9923C13.566 28.9355 13.6894 28.8673 13.7921 28.7876V28.36H13.0127ZM15.0176 29.5992V26.2288H16.4499C16.81 26.2288 17.0714 26.2595 17.2338 26.3208C17.3978 26.3806 17.5289 26.4879 17.627 26.6427C17.7251 26.7975 17.7741 26.9745 17.7741 27.1737C17.7741 27.4266 17.6998 27.6358 17.5511 27.8014C17.4024 27.9654 17.1802 28.0688 16.8844 28.1117C17.0315 28.1976 17.1526 28.2918 17.2476 28.3945C17.3442 28.4972 17.4737 28.6796 17.6362 28.9417L18.0477 29.5992H17.2338L16.7418 28.8658C16.5671 28.6037 16.4476 28.439 16.3832 28.3715C16.3188 28.3026 16.2506 28.2558 16.1786 28.2313C16.1065 28.2052 15.9924 28.1922 15.836 28.1922H15.6981V29.5992H15.0176ZM15.6981 27.6542H16.2016C16.528 27.6542 16.7319 27.6404 16.8131 27.6128C16.8943 27.5853 16.958 27.5377 17.0039 27.4703C17.0499 27.4029 17.0729 27.3186 17.0729 27.2174C17.0729 27.104 17.0422 27.0128 16.9809 26.9438C16.9212 26.8733 16.8361 26.8289 16.7258 26.8105C16.6706 26.8028 16.505 26.799 16.2292 26.799H15.6981V27.6542ZM21.363 29.5992H20.6227L20.3284 28.8336H18.9812L18.703 29.5992H17.9811L19.2938 26.2288H20.0134L21.363 29.5992ZM20.11 28.2658L19.6456 27.0151L19.1904 28.2658H20.11ZM21.6228 29.5992V26.2288H22.6413L23.2528 28.5279L23.8575 26.2288H24.8783V29.5992H24.246V26.9461L23.577 29.5992H22.9218L22.2551 26.9461V29.5992H21.6228ZM25.4508 29.5992V26.2288H26.4693L27.0808 28.5279L27.6854 26.2288H28.7062V29.5992H28.074V26.9461L27.405 29.5992H26.7497L26.083 26.9461V29.5992H25.4508ZM29.288 29.5992V26.2288H31.787V26.799H29.9685V27.5462H31.6605V28.114H29.9685V29.0313H31.8514V29.5992H29.288Z" fill="#06653B"/>
</g>
<defs>
<clipPath id="clip0_7_10966">
<rect width="105.821" height="30.5992" fill="white"/>
</clipPath>
<clipPath id="clip1_7_10966">
<rect width="39.5505" height="26.8378" fill="white" transform="translate(66.2708 3.16219)"/>
</clipPath>
</defs>
</svg>
