<svg width="48" height="48" viewBox="0 0 48 48" fill="none" xmlns="http://www.w3.org/2000/svg">
<g clip-path="url(#clip0_7_10858)">
<path d="M26.818 3.18198C28.5754 1.42462 31.4246 1.42462 33.182 3.18198L44.818 14.818C46.5754 16.5754 46.5754 19.4246 44.818 21.182L33.182 32.818C31.4246 34.5754 28.5754 34.5754 26.818 32.818L15.182 21.182C13.4246 19.4246 13.4246 16.5754 15.182 14.818L26.818 3.18198Z" fill="url(#paint0_linear_7_10858)"/>
<path fill-rule="evenodd" clip-rule="evenodd" d="M13.7402 38.2059H5.45468C4.74812 38.2059 4.17468 38.7781 4.17468 39.4859C4.17468 40.1938 4.74812 40.7659 5.45468 40.7659H13.7402C14.4467 40.7659 15.0202 40.1938 15.0202 39.4859C15.0202 38.7781 14.4467 38.2059 13.7402 38.2059Z" fill="#90ECF4"/>
<path fill-rule="evenodd" clip-rule="evenodd" d="M25.905 24.7798H17.6221C16.9156 24.7798 16.3421 25.3519 16.3421 26.0598C16.3421 26.7676 16.9156 27.3398 17.6221 27.3398H25.905C26.6116 27.3398 27.185 26.7676 27.185 26.0598C27.185 25.3519 26.6116 24.7798 25.905 24.7798Z" fill="#90ECF4"/>
<path fill-rule="evenodd" clip-rule="evenodd" d="M22.422 35.3631C19.455 35.3631 18.2979 36.5189 18.2979 39.4872C18.2979 42.4555 19.455 43.6114 22.422 43.6114C25.3903 43.6114 26.5462 42.4555 26.5462 39.4872C26.5462 36.5189 25.3903 35.3631 22.422 35.3631Z" fill="#005DFD"/>
<path fill-rule="evenodd" clip-rule="evenodd" d="M8.93884 30.1831C11.9072 30.1831 13.063 29.0273 13.063 26.0577C13.063 23.0906 11.9072 21.9348 8.93884 21.9348C5.97052 21.9348 4.81468 23.0906 4.81468 26.0577C4.81468 29.0273 5.97052 30.1831 8.93884 30.1831Z" fill="#005DFD"/>
</g>
<defs>
<linearGradient id="paint0_linear_7_10858" x1="30" y1="0" x2="30" y2="36" gradientUnits="userSpaceOnUse">
<stop stop-color="#DEDEDE"/>
<stop offset="1" stop-color="#DEDEDE" stop-opacity="0"/>
</linearGradient>
<clipPath id="clip0_7_10858">
<rect width="48" height="48" fill="white"/>
</clipPath>
</defs>
</svg>
