<svg width="280" height="30" viewBox="0 0 280 30" fill="none" xmlns="http://www.w3.org/2000/svg">
<g id="Suburban-logo" clip-path="url(#clip0_7_10870)">
<g id="Group">
<g id="Group_2">
<path id="Vector" d="M195.558 15.8332V15.5724C195.558 8.51554 200.499 3.70472 207.102 3.70472C212.695 3.70472 216.859 6.43858 217.409 12.1575H212.009C211.618 9.36081 210.058 7.86347 207.131 7.86347C203.455 7.86347 201.117 10.7277 201.117 15.5386V15.7994C201.117 20.6102 203.33 23.4069 207.165 23.4069C210.058 23.4069 212.077 21.9433 212.497 18.9535H217.665C217.081 24.711 212.951 27.667 207.227 27.667C199.62 27.6719 195.558 22.9915 195.558 15.8332Z" fill="#B8C8E0"/>
<path id="Vector_2" d="M219.163 2.59862H223.843V27.3096H219.163V2.59862Z" fill="#B8C8E0"/>
<path id="Vector_3" d="M225.471 18.9873V18.7265C225.471 13.394 229.34 9.91628 234.445 9.91628C239.551 9.91628 243.391 13.3312 243.391 18.6298V18.8907C243.391 24.257 239.522 27.6719 234.416 27.6719C229.34 27.6719 225.471 24.2908 225.471 18.9873ZM238.609 18.9245V18.6975C238.609 15.4468 237.083 13.4954 234.445 13.4954C231.842 13.4954 230.282 15.3792 230.282 18.6347V18.8955C230.282 22.1462 231.779 24.0976 234.445 24.0976C237.083 24.0927 238.609 22.1414 238.609 18.9245Z" fill="#B8C8E0"/>
<path id="Vector_4" d="M244.787 21.2671V10.3075H249.467V20.615C249.467 22.9238 250.409 24.0299 252.428 24.0299C254.413 24.0299 255.973 22.7934 255.973 20.2914V10.3075H260.654V27.3144H255.973V24.6482C255.094 26.3726 253.37 27.6719 250.573 27.6719C247.26 27.6719 244.787 25.7205 244.787 21.2671Z" fill="#B8C8E0"/>
<path id="Vector_5" d="M262.185 19.0549V18.7941C262.185 13.2008 265.407 9.91628 269.662 9.91628C272.396 9.91628 274.086 11.119 275.028 12.8433V2.59862H279.709V27.3096H275.028V24.4792C274.149 26.2035 272.067 27.667 269.565 27.667C265.435 27.6719 262.185 24.711 262.185 19.0549ZM275.159 18.8907V18.6299C275.159 15.2488 273.661 13.5244 271.092 13.5244C268.459 13.5244 266.996 15.3115 266.996 18.6926V18.9535C266.996 22.3346 268.623 23.9913 270.961 23.9913C273.434 23.9961 275.159 22.3394 275.159 18.8907Z" fill="#B8C8E0"/>
</g>
<g id="Group_3">
<path id="Vector_6" d="M42.0609 19.4461H47.5045C47.7508 21.6922 48.6975 23.5566 52.4216 23.5566C54.9139 23.5566 56.5658 22.1848 56.5658 20.219C56.5658 18.2193 55.5129 17.5141 51.8275 16.9538C45.4034 16.1133 42.7661 14.1813 42.7661 9.33183C42.7661 5.0475 46.3501 1.84995 51.8951 1.84995C57.5512 1.84995 60.8502 4.37611 61.3042 9.36564H56.0732C55.7206 7.08099 54.3874 6.02802 51.8951 6.02802C49.4027 6.02802 48.1372 7.18725 48.1372 8.87297C48.1372 10.665 48.9439 11.5054 52.808 12.0705C58.8843 12.8433 62.0094 14.4953 62.0094 19.6925C62.0094 24.1507 58.3578 27.7009 52.4216 27.7009C45.5386 27.696 42.3797 24.4695 42.0609 19.4461Z" fill="black"/>
<path id="Vector_7" d="M63.6613 20.7793V8.94543H68.7184V20.0789C68.7184 22.5713 69.7376 23.7643 71.916 23.7643C74.0605 23.7643 75.7414 22.4312 75.7414 19.7263V8.94543H80.7986V27.3096H75.7414V24.4309C74.7947 26.2905 72.9303 27.696 69.9115 27.696C66.3275 27.696 63.6613 25.5901 63.6613 20.7793Z" fill="black"/>
<path id="Vector_8" d="M88.2755 24.3971V27.3096H83.1846V0.6231H88.2755V11.8242C89.2947 10.066 91.4345 8.52521 94.1393 8.52521C98.6362 8.52521 102.148 11.8628 102.148 17.9343V18.2145C102.148 24.2908 98.7086 27.696 94.1393 27.696C91.2944 27.696 89.2222 26.2953 88.2755 24.3971ZM96.9843 18.2531V17.973C96.9843 14.2489 95.1585 12.4231 92.5937 12.4231C89.9226 12.4231 88.0968 14.2827 88.0968 17.973V18.2531C88.0968 21.9385 89.855 23.7305 92.6275 23.7305C95.4386 23.7305 96.9843 21.8322 96.9843 18.2531Z" fill="black"/>
<path id="Vector_9" d="M103.66 20.7793V8.94543H108.717V20.0789C108.717 22.5713 109.736 23.7643 111.914 23.7643C114.059 23.7643 115.74 22.4312 115.74 19.7263V8.94543H120.797V27.3096H115.74V24.4309C114.793 26.2905 112.929 27.696 109.91 27.696C106.326 27.696 103.66 25.5901 103.66 20.7793Z" fill="black"/>
<path id="Vector_10" d="M123.536 8.94542H128.627V12.4569C129.786 9.99839 131.578 8.69909 134.563 8.66528V13.4036C130.8 13.3698 128.627 14.6015 128.627 18.113V27.3144H123.536V8.94542Z" fill="black"/>
<path id="Vector_11" d="M141.233 24.397V27.3096H136.142V0.623093H141.233V11.8242C142.252 10.066 144.392 8.5252 147.097 8.5252C151.594 8.5252 155.105 11.8628 155.105 17.9343V18.2145C155.105 24.2908 151.666 27.696 147.097 27.696C144.252 27.696 142.18 26.2953 141.233 24.397ZM149.942 18.2531V17.973C149.942 14.2489 148.116 12.4231 145.551 12.4231C142.88 12.4231 141.055 14.2827 141.055 17.973V18.2531C141.055 21.9385 142.813 23.7305 145.585 23.7305C148.396 23.7305 149.942 21.8322 149.942 18.2531Z" fill="black"/>
<path id="Vector_12" d="M155.666 18.3932V18.113C155.666 12.0754 159.317 8.5252 163.636 8.5252C166.447 8.5252 168.166 9.7907 169.219 11.6503V8.94542H174.276V27.3096H169.219V24.3246C168.234 26.1504 166.094 27.696 163.495 27.696C159.317 27.696 155.666 24.5033 155.666 18.3932ZM169.359 18.2193V17.9391C169.359 14.2151 167.707 12.428 165.147 12.428C162.515 12.428 160.863 14.36 160.863 18.0116V18.2917C160.863 21.9433 162.621 23.7353 164.973 23.7353C167.466 23.7305 169.359 21.9385 169.359 18.2193Z" fill="black"/>
<path id="Vector_13" d="M176.662 8.94542H181.758V11.858C182.671 10.0322 184.671 8.52037 187.728 8.52037C191.346 8.52037 193.911 10.6988 193.911 15.6158V27.3096H188.82V16.3549C188.82 13.8625 187.835 12.6695 185.589 12.6695C183.41 12.6695 181.763 14.0026 181.763 16.7075V27.3144H176.672V8.94542H176.662Z" fill="black"/>
</g>
<g id="Group_4">
<g id="Group_5">
<g id="Group_6">
<g id="Group_7">
<path id="Vector_14" d="M36.1053 15.8912C36.1053 16.1375 36.0328 16.3645 35.9024 16.5529C35.8589 16.6157 35.8155 16.6785 35.7575 16.7316C35.5402 16.9441 35.2407 17.0794 34.9171 17.0794H4.45338C3.83029 17.0794 3.25067 16.8862 2.77249 16.5529C1.99484 16.0167 1.48767 15.1232 1.48767 14.1088C1.48767 13.7804 1.62291 13.4858 1.83544 13.2684C2.0528 13.0559 2.35227 12.9206 2.67589 12.9206H33.1348C34.777 12.9206 36.1053 14.2537 36.1053 15.8912Z" fill="#E7022E"/>
<path id="Vector_15" d="M27.3483 8.53969C27.3483 9.11447 27.1164 9.6313 26.7397 10.008C26.7107 10.037 26.6817 10.066 26.6479 10.0902C26.2808 10.4186 25.8026 10.6166 25.2713 10.6166H2.08179C1.55047 10.6166 1.07229 10.4186 0.7052 10.0902C0.270488 9.71824 0 9.15794 0 8.53969C0 7.9649 0.231847 7.44324 0.608598 7.07132C0.985349 6.69457 1.507 6.46273 2.07696 6.46273H25.2665C26.416 6.4579 27.3483 7.39011 27.3483 8.53969Z" fill="#E7022E"/>
<path id="Vector_16" d="M37.5882 21.4603C37.5882 22.0351 37.3563 22.5568 36.9796 22.9287C36.9506 22.9577 36.9216 22.9818 36.8926 23.006C36.5255 23.3392 36.0425 23.5373 35.5112 23.5373H12.3265C11.7952 23.5373 11.3122 23.3392 10.9451 23.006C10.5152 22.6292 10.2448 22.0737 10.2448 21.4555C10.2448 20.8807 10.4766 20.3639 10.8533 19.9871C11.2301 19.6104 11.7469 19.3785 12.3217 19.3785H35.5064C36.656 19.3785 37.5882 20.3107 37.5882 21.4603Z" fill="#E7022E"/>
<path id="Vector_17" d="M32.1446 2.07696C32.1446 2.65175 31.9127 3.16857 31.536 3.54532C31.507 3.5743 31.478 3.60329 31.4442 3.62744C31.0771 3.95589 30.5989 4.15392 30.0676 4.15392H4.55481C4.19738 4.15392 3.9124 3.93173 3.79165 3.62744C3.7192 3.43906 3.71437 3.2217 3.80131 3.01401C4.18772 2.10111 4.83013 1.34761 5.6271 0.821125C6.41925 0.289809 7.36596 -0.00482941 8.36096 -0.00482941H30.0628C31.2124 7.33417e-07 32.1446 0.932218 32.1446 2.07696Z" fill="#E7022E"/>
<path id="Vector_18" d="M33.7868 26.9763C33.4004 27.8941 32.758 28.6476 31.9658 29.174C31.7968 29.2851 31.6229 29.3866 31.4442 29.4687C30.7728 29.8116 30.0145 30 29.2271 30H7.53015C6.99884 30 6.51583 29.802 6.14873 29.4687C5.71885 29.0919 5.44836 28.5365 5.44836 27.9182C5.44836 27.3434 5.68021 26.8266 6.05696 26.4498C6.43371 26.0731 6.95537 25.8412 7.52532 25.8412H33.0285C33.6177 25.8412 34.0138 26.4354 33.7868 26.9763Z" fill="#E7022E"/>
</g>
<g id="Group_8">
<path id="Vector_19" d="M36.1053 15.8912C36.1053 16.1375 36.0328 16.3645 35.9024 16.5529C35.8589 16.6157 35.8155 16.6785 35.7575 16.7316C35.5402 16.9441 35.2407 17.0794 34.9171 17.0794H4.45338C3.83029 17.0794 3.25067 16.8862 2.77249 16.5529C1.99484 16.0167 1.48767 15.1232 1.48767 14.1088C1.48767 13.7804 1.62291 13.4858 1.83544 13.2684C2.0528 13.0559 2.35227 12.9206 2.67589 12.9206H33.1348C34.777 12.9206 36.1053 14.2537 36.1053 15.8912Z" fill="url(#paint0_linear_7_10870)"/>
<path id="Vector_20" d="M27.3483 8.53969C27.3483 9.11447 27.1164 9.6313 26.7397 10.008C26.7107 10.037 26.6817 10.066 26.6479 10.0902C26.2808 10.4186 25.8026 10.6166 25.2713 10.6166H2.08179C1.55047 10.6166 1.07229 10.4186 0.7052 10.0902C0.270488 9.71824 0 9.15794 0 8.53969C0 7.9649 0.231847 7.44324 0.608598 7.07132C0.985349 6.69457 1.507 6.46273 2.07696 6.46273H25.2665C26.416 6.4579 27.3483 7.39011 27.3483 8.53969Z" fill="url(#paint1_linear_7_10870)"/>
<path id="Vector_21" d="M37.5882 21.4603C37.5882 22.0351 37.3563 22.5568 36.9796 22.9287C36.9506 22.9577 36.9216 22.9818 36.8926 23.006C36.5255 23.3392 36.0425 23.5373 35.5112 23.5373H12.3265C11.7952 23.5373 11.3122 23.3392 10.9451 23.006C10.5152 22.6292 10.2448 22.0737 10.2448 21.4555C10.2448 20.8807 10.4766 20.3639 10.8533 19.9871C11.2301 19.6104 11.7469 19.3785 12.3217 19.3785H35.5064C36.656 19.3785 37.5882 20.3107 37.5882 21.4603Z" fill="url(#paint2_linear_7_10870)"/>
<path id="Vector_22" d="M32.1446 2.07696C32.1446 2.65175 31.9127 3.16857 31.536 3.54532C31.507 3.5743 31.478 3.60329 31.4442 3.62744C31.0771 3.95589 30.5989 4.15392 30.0676 4.15392H4.55481C4.19738 4.15392 3.9124 3.93173 3.79165 3.62744C3.7192 3.43906 3.71437 3.2217 3.80131 3.01401C4.18772 2.10111 4.83013 1.34761 5.6271 0.821125C6.41925 0.289809 7.36596 -0.00482941 8.36096 -0.00482941H30.0628C31.2124 7.33417e-07 32.1446 0.932218 32.1446 2.07696Z" fill="url(#paint3_linear_7_10870)"/>
<path id="Vector_23" d="M33.7868 26.9763C33.4004 27.8941 32.758 28.6476 31.9658 29.174C31.7968 29.2851 31.6229 29.3866 31.4442 29.4687C30.7728 29.8116 30.0145 30 29.2271 30H7.53015C6.99884 30 6.51583 29.802 6.14873 29.4687C5.71885 29.0919 5.44836 28.5365 5.44836 27.9182C5.44836 27.3434 5.68021 26.8266 6.05696 26.4498C6.43371 26.0731 6.95537 25.8412 7.52532 25.8412H33.0285C33.6177 25.8412 34.0138 26.4354 33.7868 26.9763Z" fill="url(#paint4_linear_7_10870)"/>
</g>
</g>
<g id="Group_9" opacity="0.8">
<g id="Group_10">
<path id="Vector_24" d="M36.1054 15.8912C36.1054 16.1375 36.0329 16.3645 35.9025 16.5529C35.859 16.6157 35.8155 16.6785 35.7576 16.7316C35.5402 16.9441 35.2408 17.0794 34.9171 17.0794H4.45345C3.83036 17.0794 3.25074 16.8862 2.77256 16.5529C1.99491 16.0167 1.48291 15.1232 1.48291 14.1088C1.48291 14.0799 1.48291 14.0509 1.48774 14.0219C1.53121 14.9783 2.02872 15.8187 2.77256 16.3259C3.25074 16.6592 3.83036 16.8524 4.45345 16.8524H34.9123C35.2408 16.8524 35.5354 16.7171 35.7528 16.5046C35.8059 16.4515 35.8542 16.3887 35.8977 16.3259C36.0136 16.1616 36.0812 15.9636 36.0957 15.7463C36.1005 15.7946 36.1054 15.8429 36.1054 15.8912Z" fill="#FF8380"/>
<path id="Vector_25" d="M27.3483 8.53969C27.3483 9.11448 27.1164 9.6313 26.7397 10.0081C26.7107 10.037 26.6817 10.066 26.6479 10.0902C26.2808 10.4186 25.8026 10.6167 25.2713 10.6167H2.07696C1.54564 10.6167 1.06746 10.4186 0.70037 10.0902C0.270488 9.71824 0 9.15795 0 8.53969C0 8.50105 0 8.46241 0.00483014 8.42377C0.033811 8.99855 0.299469 9.51055 0.7052 9.86798C1.07229 10.1964 1.55047 10.3945 2.08179 10.3945H25.2713C25.8026 10.3945 26.2808 10.1964 26.6479 9.86798C26.6817 9.84383 26.7107 9.81485 26.7397 9.78587C27.0923 9.43327 27.3193 8.95991 27.3434 8.4286C27.3434 8.46241 27.3483 8.50105 27.3483 8.53969Z" fill="#FF8380"/>
<path id="Vector_26" d="M37.5881 21.4603C37.5881 22.0351 37.3563 22.5519 36.9795 22.9287C36.9505 22.9577 36.9215 22.9818 36.8926 23.006C36.5255 23.3392 36.0425 23.5373 35.5111 23.5373H12.3265C11.7952 23.5373 11.3121 23.3392 10.9451 23.006C10.5152 22.6292 10.2495 22.0737 10.2495 21.4555C10.2495 21.4168 10.2495 21.3782 10.2543 21.3396C10.2833 21.9143 10.5442 22.4215 10.9499 22.7789C11.317 23.1122 11.8 23.3103 12.3313 23.3103H35.516C36.0473 23.3103 36.5303 23.1122 36.8974 22.7789C36.9264 22.7548 36.9554 22.7306 36.9843 22.7017C37.3369 22.3491 37.564 21.8757 37.5881 21.3444C37.5881 21.383 37.5881 21.4217 37.5881 21.4603Z" fill="#FF8380"/>
<path id="Vector_27" d="M32.1446 2.07696C32.1446 2.65175 31.9127 3.1734 31.536 3.54532C31.507 3.5743 31.478 3.60328 31.4442 3.62744C31.0771 3.95588 30.5989 4.15392 30.0676 4.15392H4.55483C4.1974 4.15392 3.91242 3.93173 3.79167 3.62744C3.74337 3.50185 3.72405 3.36178 3.74337 3.2217C3.75303 3.28449 3.76752 3.34246 3.79167 3.40042C3.91242 3.70472 4.1974 3.9269 4.55483 3.9269H30.0628C30.5941 3.9269 31.0723 3.72887 31.4394 3.40042C31.4732 3.37627 31.5022 3.34729 31.5312 3.31831C31.8838 2.96571 32.1108 2.49235 32.1349 1.96104C32.1398 2.00451 32.1446 2.04315 32.1446 2.07696Z" fill="#FF8380"/>
<path id="Vector_28" d="M33.7868 26.9763C33.4004 27.8941 32.758 28.6476 31.9658 29.174C31.7968 29.2851 31.6229 29.3866 31.4442 29.4687C30.7728 29.8116 30.0145 30 29.2271 30H7.53015C6.99884 30 6.51583 29.802 6.14873 29.4687C5.71885 29.0919 5.44836 28.5365 5.44836 27.9182C5.44836 27.8796 5.44836 27.8409 5.45319 27.8023C5.48218 28.3771 5.743 28.8842 6.14873 29.2417C6.51583 29.5749 6.99884 29.773 7.53015 29.773H29.2271C30.0145 29.773 30.7728 29.5846 31.4442 29.2417C31.6229 29.1596 31.7968 29.0533 31.9658 28.9422C32.758 28.4157 33.4004 27.6622 33.7868 26.7445C33.8158 26.6769 33.8351 26.6092 33.8448 26.5416C33.8641 26.6817 33.8496 26.8314 33.7868 26.9763Z" fill="#FF8380"/>
</g>
</g>
</g>
</g>
</g>
</g>
<defs>
<linearGradient id="paint0_linear_7_10870" x1="5.29039" y1="32.3139" x2="40.7212" y2="-13.1043" gradientUnits="userSpaceOnUse">
<stop offset="0.0383493" stop-color="#E7022E"/>
<stop offset="0.8055" stop-color="#FFC0BE"/>
</linearGradient>
<linearGradient id="paint1_linear_7_10870" x1="-1.02782" y1="27.3851" x2="34.403" y2="-18.0332" gradientUnits="userSpaceOnUse">
<stop offset="0.0383493" stop-color="#E7022E"/>
<stop offset="0.8055" stop-color="#FFC0BE"/>
</linearGradient>
<linearGradient id="paint2_linear_7_10870" x1="11.6053" y1="37.2402" x2="47.0361" y2="-8.17809" gradientUnits="userSpaceOnUse">
<stop offset="0.0383493" stop-color="#E7022E"/>
<stop offset="0.8055" stop-color="#FFC0BE"/>
</linearGradient>
<linearGradient id="paint3_linear_7_10870" x1="-1.15509" y1="27.2858" x2="34.2757" y2="-18.1325" gradientUnits="userSpaceOnUse">
<stop offset="0.0383493" stop-color="#E7022E"/>
<stop offset="0.8055" stop-color="#FFC0BE"/>
</linearGradient>
<linearGradient id="paint4_linear_7_10870" x1="11.7313" y1="37.3385" x2="47.1621" y2="-8.07979" gradientUnits="userSpaceOnUse">
<stop offset="0.0383493" stop-color="#E7022E"/>
<stop offset="0.8055" stop-color="#FFC0BE"/>
</linearGradient>
<clipPath id="clip0_7_10870">
<rect width="279.709" height="30" fill="white"/>
</clipPath>
</defs>
</svg>
